<svg width="344" height="212" viewBox="0 0 344 212" fill="none" xmlns="http://www.w3.org/2000/svg">
<path d="M344 66.5698C344 68.785 343.115 70.5572 341.786 72.3293C340.458 74.1015 338.687 75.4306 336.474 76.7597L131.49 195.051C121.75 200.367 107.583 201.253 99.1712 196.38L5.31274 142.329C3.98456 141.443 2.65637 140.557 2.21364 139.671C0.885457 137.899 0 136.127 0 134.355C0 130.81 2.65637 126.823 7.96911 123.722L212.51 5.4306C222.25 0.114142 236.417 -0.771934 244.829 4.10148L338.245 58.5951C342.229 60.8103 344 63.4686 344 66.5698Z" fill="#1A2638"/>
<path d="M331.604 71.8865C330.718 73.6586 328.947 74.9877 326.734 76.3168L271.835 108.216L216.937 139.671L205.869 145.874L183.29 159.165L130.605 189.735C122.636 194.608 108.911 194.608 100.499 189.735L17.2664 141.443C9.29724 136.57 8.85451 129.038 17.2664 124.165L100.499 76.3168L123.078 63.0257L134.147 56.8232L189.045 25.3675L213.395 11.1903C215.609 9.86114 218.265 8.97507 220.921 8.53203C228.448 6.75988 237.302 8.08899 243.058 11.1903L326.734 59.4814C332.489 62.5827 334.26 67.4561 331.604 71.8865Z" fill="#233349"/>
<path d="M154.955 76.7601C149.199 80.3044 139.459 80.3044 133.704 76.7601C127.948 73.2158 127.948 67.8993 133.704 64.355C139.459 60.8107 149.199 60.8107 154.955 64.355C160.71 67.8993 160.71 73.2158 154.955 76.7601Z" fill="#2F435B"/>
<path d="M181.076 91.8231C175.32 95.3674 165.58 95.3674 159.825 91.8231C154.069 88.2787 154.069 82.9623 159.825 79.418C165.58 75.8737 175.32 75.8737 181.076 79.418C187.274 82.9623 187.274 88.7218 181.076 91.8231Z" fill="#2F435B"/>
<path d="M207.64 107.329C201.884 110.874 192.144 110.874 186.389 107.329C180.633 103.785 180.633 98.4686 186.389 94.9243C192.144 91.38 201.884 91.38 207.64 94.9243C213.395 98.4686 213.395 103.785 207.64 107.329Z" fill="#2F435B"/>
<path d="M234.203 122.392C228.448 125.937 218.708 125.937 212.952 122.392C207.197 118.848 207.197 113.532 212.952 109.987C218.708 106.443 228.448 106.443 234.203 109.987C239.959 113.532 239.959 118.848 234.203 122.392Z" fill="#FF6B08"/>
<path d="M127.506 92.7098C121.75 96.2541 112.01 96.2541 106.255 92.7098C100.499 89.1655 100.499 83.849 106.255 80.3047C112.01 76.7604 121.75 76.7604 127.506 80.3047C133.704 83.406 133.704 89.1655 127.506 92.7098Z" fill="#2F435B"/>
<path d="M154.07 107.773C148.314 111.317 138.574 111.317 132.819 107.773C127.063 104.228 127.063 98.912 132.819 95.3677C138.574 91.8234 148.314 91.8234 154.07 95.3677C159.825 98.912 159.825 104.228 154.07 107.773Z" fill="#2F435B"/>
<path d="M180.19 122.836C174.435 126.38 164.695 126.38 158.939 122.836C153.184 119.291 153.184 113.975 158.939 110.431C164.695 106.886 174.435 106.886 180.19 110.431C186.389 113.975 186.389 119.734 180.19 122.836Z" fill="#2F435B"/>
<path d="M206.754 138.342C200.999 141.886 191.259 141.886 185.503 138.342C179.748 134.798 179.748 129.481 185.503 125.937C191.259 122.393 200.999 122.393 206.754 125.937C212.51 129.481 212.51 134.798 206.754 138.342Z" fill="#FF6B08"/>
<path d="M100.499 108.216C94.7439 111.76 85.0038 111.76 79.2484 108.216C73.4929 104.672 73.4929 99.3554 79.2484 95.8111C85.0038 92.2668 94.7439 92.2668 100.499 95.8111C106.255 99.3554 106.255 105.115 100.499 108.216Z" fill="#2F435B"/>
<path d="M126.62 123.722C120.865 127.267 111.125 127.267 105.369 123.722C99.6139 120.178 99.6139 114.862 105.369 111.317C111.125 107.773 120.865 107.773 126.62 111.317C132.818 114.419 132.818 120.178 126.62 123.722Z" fill="#2F435B"/>
<path d="M153.184 138.785C147.429 142.33 137.689 142.33 131.933 138.785C126.178 135.241 126.178 129.925 131.933 126.38C137.689 122.836 147.429 122.836 153.184 126.38C158.94 129.925 158.94 135.241 153.184 138.785Z" fill="#2F435B"/>
<path d="M179.305 153.848C173.549 157.393 163.809 157.393 158.054 153.848C152.298 150.304 152.298 144.988 158.054 141.443C163.809 137.899 173.549 137.899 179.305 141.443C185.503 144.988 185.503 150.747 179.305 153.848Z" fill="#FF6B08"/>
<path d="M73.0502 124.166C67.2948 127.71 57.5547 127.71 51.7993 124.166C46.0438 120.622 46.0438 115.305 51.7993 111.761C57.5547 108.216 67.2948 108.216 73.0502 111.761C78.8057 115.305 78.8057 120.622 73.0502 124.166Z" fill="#2F435B"/>
<path d="M99.6139 139.229C93.8585 142.773 84.1185 142.773 78.363 139.229C72.6075 135.685 72.6075 130.368 78.363 126.824C84.1185 123.279 93.8585 123.279 99.6139 126.824C105.369 130.368 105.369 136.128 99.6139 139.229Z" fill="#2F435B"/>
<path d="M125.735 154.735C119.979 158.279 110.239 158.279 104.484 154.735C98.7284 151.191 98.7284 145.874 104.484 142.33C110.239 138.786 119.979 138.786 125.735 142.33C131.49 145.431 131.49 151.191 125.735 154.735Z" fill="#2F435B"/>
<path d="M152.299 169.798C146.543 173.342 136.803 173.342 131.048 169.798C125.292 166.254 125.292 160.937 131.048 157.393C136.803 153.849 146.543 153.849 152.299 157.393C158.054 160.937 158.054 166.254 152.299 169.798Z" fill="#FF6B08"/>
<path d="M45.601 139.672C39.8456 143.216 30.1055 143.216 24.3501 139.672C18.5946 136.128 18.5946 130.811 24.3501 127.267C30.1055 123.723 39.8456 123.723 45.601 127.267C51.3565 130.811 51.7992 136.571 45.601 139.672Z" fill="#2F435B"/>
<path d="M72.1647 155.179C66.4093 158.723 56.6692 158.723 50.9138 155.179C45.1583 151.634 45.1583 146.318 50.9138 142.773C56.6692 139.229 66.4093 139.229 72.1647 142.773C77.9202 146.318 77.9202 151.634 72.1647 155.179Z" fill="#2F435B"/>
<path d="M98.2857 170.242C92.5302 173.786 82.7902 173.786 77.0347 170.242C71.2793 166.697 71.2793 161.381 77.0347 157.836C82.7902 154.292 92.5302 154.292 98.2857 157.836C104.484 161.381 104.484 166.697 98.2857 170.242Z" fill="#2F435B"/>
<path d="M124.849 185.748C119.094 189.292 109.354 189.292 103.598 185.748C97.8429 182.204 97.8429 176.887 103.598 173.343C109.354 169.798 119.094 169.798 124.849 173.343C130.605 176.444 130.605 182.204 124.849 185.748Z" fill="#FF6B08"/>
<path d="M50.471 155.179L23.4645 139.229L44.7155 126.824L72.1647 142.774L50.471 155.179Z" fill="#2F435B"/>
<path d="M206.754 51.5077L184.175 64.3558L181.519 63.0267L197.9 53.7229L192.144 50.6216L194.358 49.2925C196.129 50.1786 197.9 51.0646 199.671 51.0646C201.441 51.5077 203.212 51.0646 204.983 50.6216L206.754 51.5077Z" fill="white"/>
<path d="M207.64 64.3562C207.197 63.4701 206.754 62.584 207.197 62.141C207.64 61.2549 208.082 60.8119 209.41 59.9258C211.181 59.0397 212.952 58.5967 215.609 58.5967C217.822 58.5967 220.036 59.4828 221.807 60.3688C223.578 61.6979 224.906 62.584 224.906 63.9131C224.906 65.2423 224.463 66.5714 222.692 67.4574C220.479 68.7866 217.822 69.2296 214.723 68.3435C216.494 70.5587 216.051 72.3309 213.395 73.66C211.181 74.9891 208.968 75.4321 206.311 75.4321C203.655 75.4321 200.999 74.546 198.785 73.2169C196.571 71.8878 195.243 70.5587 195.243 69.2296C195.243 67.9005 196.129 66.5714 198.342 65.2423C199.67 64.3562 200.999 63.9131 202.77 63.9131C204.54 63.9131 205.869 63.9131 207.64 64.3562ZM210.296 67.0144C208.968 66.1283 207.64 65.6853 205.869 65.6853C204.098 65.6853 202.77 66.1283 201.441 66.5714C200.113 67.4574 199.67 68.3435 199.67 69.2296C199.67 70.1157 200.556 71.0017 201.884 71.8878C203.212 72.7739 204.983 73.2169 206.754 73.2169C208.525 73.2169 209.853 72.7739 211.181 71.8878C212.51 71.0017 212.952 70.1157 212.952 69.2296C212.51 68.7866 211.624 67.9005 210.296 67.0144ZM221.364 63.9131C221.364 63.0271 220.479 62.584 219.593 61.6979C218.265 60.8119 216.937 60.8119 215.609 60.8119C214.281 60.8119 212.952 61.2549 212.067 61.6979C211.181 62.141 210.739 63.0271 210.739 63.9131C210.739 64.7992 211.624 65.2423 212.51 66.1283C213.838 67.0144 214.723 67.0144 216.494 67.0144C217.822 67.0144 219.151 66.5714 220.036 66.1283C220.921 65.2423 221.364 64.7992 221.364 63.9131Z" fill="white"/>
<path d="M242.173 71.888L219.593 85.1792L216.494 83.407L232.875 74.1032L227.12 71.002L229.333 69.6729C231.104 70.5589 232.875 71.445 234.646 71.445C236.417 71.888 238.188 71.445 239.959 71.002L242.173 71.888Z" fill="white"/>
<path d="M263.866 85.1778L261.652 86.5069C251.027 86.95 241.73 89.1651 233.318 93.1525L230.219 91.3803C233.761 89.6082 238.188 88.2791 243.058 86.95C247.928 86.0639 253.241 85.1778 258.111 85.1778L246.157 78.5322L248.813 77.2031L263.866 85.1778Z" fill="white"/>
<path d="M315.223 52.3931L309.024 55.9374C308.139 56.3804 306.811 56.8234 305.483 56.8234C302.826 57.2665 300.17 56.8234 297.956 55.9374L248.813 27.1399C246.6 25.8108 246.157 24.4817 247.042 22.7095C247.485 21.8234 247.928 21.3804 248.813 20.9374L255.012 17.3931L315.223 52.3931Z" fill="#1A2638"/>
<path d="M282.018 39.9877C280.247 40.8737 277.591 40.8737 275.82 39.9877C274.492 39.1016 274.492 37.3294 276.263 36.4434C278.034 35.5573 280.69 35.5573 282.461 36.4434C283.789 37.3294 283.789 39.1016 282.018 39.9877Z" fill="#2F435B"/>
<path d="M344 66.5708V78.0898C344 81.6341 341.344 85.6214 336.031 88.7227L131.49 206.571C121.75 211.887 107.583 212.773 99.1712 207.9L5.31274 153.406C1.77091 151.634 0 148.533 0 145.432V133.913C0 135.685 0.885457 137.457 2.21364 139.229C2.65637 140.115 3.98456 141.001 5.31274 141.887L99.1712 195.938C107.14 200.811 121.75 199.925 131.49 194.609L336.031 76.3176C338.245 74.9885 340.458 73.2164 341.344 71.8873C343.115 70.5581 344 68.343 344 66.5708Z" fill="#101926"/>
</svg>
