<svg width="257" height="234" viewBox="0 0 257 234" fill="none" xmlns="http://www.w3.org/2000/svg">
<path d="M253.651 74.3445L125.984 0.714279C125.096 0.182012 124.208 0.0933009 123.409 0.359434L121.012 1.15783L121.811 1.33526C121.456 1.6901 121.19 2.22237 121.012 2.75464L92.1583 96.4336C91.448 98.7401 92.5134 101.579 94.4666 102.732L222.222 176.451C222.489 176.628 222.844 176.717 223.199 176.806L222.844 177.516L225.063 176.717C225.951 176.362 226.75 175.564 227.105 174.322L255.959 80.643C256.758 78.3365 255.693 75.4978 253.651 74.3445Z" fill="#101926"/>
<path d="M217.606 180L91.5372 107.256C89.6728 106.192 86.4766 106.281 84.2571 107.523L2.75612 154.539L0.00390625 153.564L0.802936 157.378C0.891717 157.91 1.33562 158.531 2.04587 158.886L129.358 232.339C131.222 233.404 134.418 233.315 136.638 232.073L218.316 184.967C219.293 184.346 219.915 183.637 220.092 182.927L220.891 179.201L217.606 180Z" fill="#101926"/>
<path d="M129.535 228.968L1.24679 154.983C-0.617616 153.919 -0.351273 152.056 1.77947 150.814L84.0795 103.353C86.2103 102.111 89.4951 101.934 91.3596 103.087L219.559 177.072C221.424 178.137 221.157 180 219.027 181.242L136.727 228.702C134.596 229.944 131.4 230.033 129.535 228.968Z" fill="#1A2638"/>
<g opacity="0.4">
<path opacity="0.4" d="M62.4162 143.007L58.0659 140.523C57.7108 140.346 57.7996 139.991 58.1547 139.725L63.304 136.797C63.7479 136.531 64.2806 136.531 64.6357 136.708L68.986 139.192C69.3411 139.37 69.2523 139.725 68.8972 139.991L63.7479 142.918C63.3928 143.184 62.7713 143.184 62.4162 143.007Z" fill="#06033E"/>
<path opacity="0.4" d="M69.0754 146.822L64.7251 144.338C64.37 144.16 64.4588 143.805 64.8139 143.539L69.9632 140.612C70.4071 140.346 70.9398 140.346 71.2949 140.523L75.6452 143.007C76.0003 143.184 75.9115 143.539 75.5564 143.805L70.4071 146.733C70.052 146.999 69.4305 147.088 69.0754 146.822Z" fill="#06033E"/>
<path opacity="0.4" d="M75.8224 150.725L71.4722 148.241C71.117 148.064 71.2058 147.709 71.5609 147.443L76.7102 144.515C77.1542 144.249 77.6868 144.249 78.042 144.426L82.3922 146.91C82.7474 147.088 82.6586 147.443 82.3034 147.709L77.1542 150.636C76.7102 150.902 76.1776 150.902 75.8224 150.725Z" fill="#06033E"/>
<path opacity="0.4" d="M85.0549 147.531L80.7046 145.047C80.3495 144.87 80.4382 144.515 80.7934 144.249L85.0549 141.765C85.4988 141.499 86.0315 141.499 86.3866 141.676L90.7368 144.16C91.092 144.338 91.0032 144.693 90.6481 144.959L86.3866 147.443C86.0315 147.709 85.41 147.709 85.0549 147.531Z" fill="#06033E"/>
<path opacity="0.4" d="M91.714 151.346L87.3638 148.862C87.0086 148.685 87.0974 148.33 87.4525 148.064L91.714 145.58C92.158 145.314 92.6906 145.314 93.0458 145.491L97.396 147.975C97.7512 148.152 97.6624 148.507 97.3073 148.773L93.0458 151.257C92.6906 151.523 92.0692 151.612 91.714 151.346Z" fill="#06033E"/>
<path opacity="0.4" d="M98.3733 155.249L94.1118 152.765C93.7567 152.588 93.8455 152.233 94.2006 151.967L98.4621 149.483C98.906 149.217 99.4387 149.217 99.7938 149.394L104.144 151.878C104.499 152.055 104.41 152.41 104.055 152.676L99.7938 155.16C99.3499 155.427 98.7284 155.427 98.3733 155.249Z" fill="#06033E"/>
<path opacity="0.4" d="M105.119 159.064L100.769 156.58C100.414 156.402 100.503 156.047 100.858 155.781L105.119 153.297C105.563 153.031 106.096 153.031 106.451 153.209L110.801 155.693C111.156 155.87 111.068 156.225 110.713 156.491L106.451 158.975C106.096 159.241 105.474 159.33 105.119 159.064Z" fill="#06033E"/>
<path opacity="0.4" d="M111.778 162.967L107.428 160.483C107.073 160.306 107.162 159.951 107.517 159.685L111.778 157.201C112.222 156.935 112.755 156.935 113.11 157.112L117.46 159.596C117.816 159.773 117.727 160.128 117.372 160.394L113.11 162.878C112.755 163.144 112.134 163.144 111.778 162.967Z" fill="#06033E"/>
<path opacity="0.4" d="M118.437 166.782L114.086 164.298C113.731 164.12 113.82 163.765 114.175 163.499L118.437 161.015C118.881 160.749 119.413 160.749 119.768 160.927L124.119 163.411C124.474 163.588 124.385 163.943 124.03 164.209L119.768 166.693C119.413 166.959 118.792 167.048 118.437 166.782Z" fill="#06033E"/>
<path opacity="0.4" d="M125.184 170.685L120.833 168.201C120.478 168.024 120.567 167.669 120.922 167.403L125.184 164.919C125.628 164.653 126.16 164.653 126.515 164.83L130.866 167.314C131.221 167.491 131.132 167.846 130.777 168.112L126.515 170.596C126.072 170.862 125.539 170.862 125.184 170.685Z" fill="#06033E"/>
<path opacity="0.4" d="M131.843 174.499L127.493 172.016C127.138 171.838 127.226 171.483 127.581 171.217L131.843 168.733C132.287 168.467 132.82 168.467 133.175 168.645L137.525 171.128C137.88 171.306 137.791 171.661 137.436 171.927L133.175 174.411C132.82 174.677 132.198 174.766 131.843 174.499Z" fill="#06033E"/>
<path opacity="0.4" d="M138.501 178.403L134.151 175.919C133.796 175.741 133.885 175.387 134.24 175.12L138.501 172.637C138.945 172.37 139.478 172.37 139.833 172.548L144.183 175.032C144.538 175.209 144.449 175.564 144.094 175.83L139.833 178.314C139.478 178.58 138.856 178.58 138.501 178.403Z" fill="#06033E"/>
<path opacity="0.4" d="M145.248 182.217L140.898 179.733C140.543 179.556 140.632 179.201 140.987 178.935L145.248 176.451C145.692 176.185 146.225 176.185 146.58 176.362L150.93 178.846C151.285 179.024 151.197 179.379 150.841 179.645L146.58 182.129C146.136 182.395 145.603 182.395 145.248 182.217Z" fill="#06033E"/>
<path opacity="0.4" d="M94.9103 145.668L90.5601 143.184C90.2049 143.007 90.2937 142.652 90.6488 142.386L94.9103 139.902C95.3542 139.636 95.8869 139.636 96.242 139.813L100.592 142.297C100.947 142.475 100.859 142.83 100.504 143.096L96.242 145.58C95.8869 145.846 95.2655 145.934 94.9103 145.668Z" fill="#06033E"/>
<path opacity="0.4" d="M88.0734 141.765L83.7231 139.281C83.368 139.104 83.4568 138.749 83.8119 138.483L88.0734 135.999C88.5173 135.733 89.05 135.733 89.4051 135.91L93.7554 138.394C94.1105 138.571 94.0217 138.926 93.6666 139.192L89.4051 141.676C89.05 141.942 88.4285 141.942 88.0734 141.765Z" fill="#06033E"/>
<path opacity="0.4" d="M81.3264 137.862L72.0044 132.45C71.6493 132.273 71.738 131.918 72.0932 131.652L76.3547 129.168C76.7986 128.902 77.3313 128.902 77.6864 129.079L87.0084 134.491C87.3635 134.668 87.2747 135.023 86.9196 135.289L82.6581 137.773C82.303 138.039 81.6815 138.039 81.3264 137.862Z" fill="#06033E"/>
<path opacity="0.4" d="M86.0322 133.071L78.4858 128.724C78.1307 128.547 78.2195 128.192 78.5746 127.926L82.8361 125.442C83.28 125.176 83.8127 125.176 84.1678 125.353L91.7142 129.7C92.0693 129.878 91.9805 130.233 91.6254 130.499L87.3639 132.983C87.0088 133.249 86.3873 133.337 86.0322 133.071Z" fill="#06033E"/>
<path opacity="0.4" d="M101.569 149.572L97.2183 147.088C96.8631 146.91 96.9519 146.555 97.307 146.289L101.569 143.805C102.012 143.539 102.545 143.539 102.9 143.717L107.251 146.201C107.606 146.378 107.517 146.733 107.162 146.999L102.9 149.483C102.545 149.749 101.924 149.749 101.569 149.572Z" fill="#06033E"/>
<path opacity="0.4" d="M108.228 153.386L103.877 150.902C103.522 150.725 103.611 150.37 103.966 150.104L108.228 147.62C108.672 147.354 109.204 147.354 109.559 147.531L113.91 150.015C114.265 150.193 114.176 150.547 113.821 150.814L109.559 153.298C109.204 153.564 108.583 153.652 108.228 153.386Z" fill="#06033E"/>
<path opacity="0.4" d="M114.975 157.289L110.625 154.806C110.269 154.628 110.358 154.273 110.713 154.007L114.975 151.523C115.419 151.257 115.951 151.257 116.306 151.435L120.657 153.918C121.012 154.096 120.923 154.451 120.568 154.717L116.306 157.201C115.863 157.467 115.33 157.467 114.975 157.289Z" fill="#06033E"/>
<path opacity="0.4" d="M121.633 161.104L117.283 158.62C116.928 158.443 117.016 158.088 117.371 157.822L121.633 155.338C122.077 155.072 122.61 155.072 122.965 155.249L127.315 157.733C127.67 157.91 127.581 158.265 127.226 158.531L122.965 161.015C122.61 161.282 121.988 161.282 121.633 161.104Z" fill="#06033E"/>
<path opacity="0.4" d="M128.292 165.007L123.942 162.523C123.587 162.346 123.676 161.991 124.031 161.725L128.292 159.241C128.736 158.975 129.269 158.975 129.624 159.152L133.974 161.636C134.329 161.814 134.24 162.169 133.885 162.435L129.624 164.919C129.269 165.185 128.647 165.185 128.292 165.007Z" fill="#06033E"/>
<path opacity="0.4" d="M135.039 168.822L130.689 166.338C130.334 166.161 130.423 165.806 130.778 165.54L135.039 163.056C135.483 162.789 136.016 162.789 136.371 162.967L140.721 165.451C141.076 165.628 140.988 165.983 140.632 166.249L136.371 168.733C135.927 168.999 135.394 168.999 135.039 168.822Z" fill="#06033E"/>
<path opacity="0.4" d="M141.697 172.725L137.347 170.241C136.992 170.064 137.081 169.709 137.436 169.443L141.697 166.959C142.141 166.693 142.674 166.693 143.029 166.87L147.379 169.354C147.735 169.532 147.646 169.886 147.291 170.153L143.029 172.636C142.674 172.903 142.053 172.903 141.697 172.725Z" fill="#06033E"/>
<path opacity="0.4" d="M148.357 176.54L144.006 174.056C143.651 173.878 143.74 173.524 144.095 173.257L148.357 170.774C148.801 170.507 149.333 170.507 149.688 170.685L154.039 173.169C154.394 173.346 154.305 173.701 153.95 173.967L149.688 176.451C149.333 176.717 148.712 176.717 148.357 176.54Z" fill="#06033E"/>
<path opacity="0.4" d="M155.104 180.443L150.753 177.959C150.398 177.782 150.487 177.427 150.842 177.161L155.104 174.677C155.548 174.411 156.08 174.411 156.435 174.588L160.786 177.072C161.141 177.249 161.052 177.604 160.697 177.87L156.435 180.354C155.991 180.62 155.37 180.62 155.104 180.443Z" fill="#06033E"/>
<path opacity="0.4" d="M166.911 187.274L157.5 181.862C157.145 181.685 157.234 181.33 157.589 181.064L161.851 178.58C162.295 178.314 162.827 178.314 163.182 178.491L172.593 183.903C172.948 184.08 172.86 184.435 172.504 184.701L168.243 187.185C167.888 187.451 167.266 187.451 166.911 187.274Z" fill="#06033E"/>
<path opacity="0.4" d="M179.962 179.733L171.972 175.12C171.617 174.943 171.706 174.588 172.061 174.322L176.322 171.838C176.766 171.572 177.299 171.572 177.654 171.749L185.644 176.362C186 176.54 185.911 176.895 185.556 177.161L181.294 179.645C180.939 179.911 180.318 180 179.962 179.733Z" fill="#06033E"/>
<path opacity="0.4" d="M113.288 148.773L108.938 146.289C108.583 146.112 108.672 145.757 109.027 145.491L113.288 143.007C113.732 142.741 114.265 142.741 114.62 142.918L118.97 145.402C119.325 145.58 119.237 145.934 118.881 146.201L114.62 148.685C114.265 148.951 113.643 149.039 113.288 148.773Z" fill="#06033E"/>
<path opacity="0.4" d="M106.451 144.87L102.101 142.386C101.746 142.209 101.835 141.854 102.19 141.588L106.451 139.104C106.895 138.838 107.428 138.838 107.783 139.015L112.133 141.499C112.488 141.676 112.4 142.031 112.045 142.297L107.783 144.781C107.428 145.047 106.806 145.047 106.451 144.87Z" fill="#06033E"/>
<path opacity="0.4" d="M99.6154 140.878L95.2651 138.394C94.91 138.217 94.9988 137.862 95.3539 137.596L99.6154 135.112C100.059 134.846 100.592 134.846 100.947 135.023L105.297 137.507C105.653 137.684 105.564 138.039 105.209 138.305L100.947 140.789C100.503 141.055 99.9705 141.055 99.6154 140.878Z" fill="#06033E"/>
<path opacity="0.4" d="M92.6906 136.975L88.3403 134.491C87.9852 134.313 88.074 133.959 88.4291 133.692L92.6906 131.208C93.1345 130.942 93.6672 130.942 94.0223 131.12L98.3726 133.604C98.7277 133.781 98.6389 134.136 98.2838 134.402L94.0223 136.886C93.6672 137.152 93.0457 137.152 92.6906 136.975Z" fill="#06033E"/>
<path opacity="0.4" d="M119.946 152.676L115.596 150.193C115.241 150.015 115.33 149.66 115.685 149.394L119.946 146.91C120.39 146.644 120.923 146.644 121.278 146.822L125.628 149.305C125.984 149.483 125.895 149.838 125.54 150.104L121.278 152.588C120.923 152.854 120.302 152.854 119.946 152.676Z" fill="#06033E"/>
<path opacity="0.4" d="M126.694 156.491L122.343 154.007C121.988 153.83 122.077 153.475 122.432 153.209L126.694 150.725C127.137 150.459 127.67 150.459 128.025 150.636L132.376 153.12C132.731 153.297 132.642 153.652 132.287 153.918L128.025 156.402C127.581 156.669 127.049 156.757 126.694 156.491Z" fill="#06033E"/>
<path opacity="0.4" d="M133.353 160.394L129.002 157.91C128.647 157.733 128.736 157.378 129.091 157.112L133.353 154.628C133.797 154.362 134.329 154.362 134.684 154.539L139.035 157.023C139.39 157.201 139.301 157.556 138.946 157.822L134.684 160.306C134.329 160.572 133.708 160.572 133.353 160.394Z" fill="#06033E"/>
<path opacity="0.4" d="M140.011 164.209L135.661 161.725C135.306 161.548 135.394 161.193 135.749 160.927L140.011 158.443C140.455 158.177 140.987 158.177 141.343 158.354L145.693 160.838C146.048 161.015 145.959 161.37 145.604 161.636L141.343 164.12C140.987 164.386 140.366 164.386 140.011 164.209Z" fill="#06033E"/>
<path opacity="0.4" d="M146.758 168.112L142.408 165.628C142.053 165.451 142.141 165.096 142.496 164.83L146.758 162.346C147.202 162.08 147.735 162.08 148.09 162.257L152.44 164.741C152.795 164.919 152.706 165.273 152.351 165.54L148.09 168.024C147.646 168.29 147.024 168.29 146.758 168.112Z" fill="#06033E"/>
<path opacity="0.4" d="M153.417 171.927L149.067 169.443C148.712 169.265 148.801 168.911 149.156 168.645L153.417 166.161C153.861 165.894 154.394 165.894 154.749 166.072L159.099 168.556C159.454 168.733 159.366 169.088 159.01 169.354L154.749 171.838C154.394 172.104 153.772 172.104 153.417 171.927Z" fill="#06033E"/>
<path opacity="0.4" d="M160.075 175.83L155.725 173.346C155.37 173.169 155.459 172.814 155.814 172.548L160.075 170.064C160.519 169.798 161.052 169.798 161.407 169.975L165.757 172.459C166.112 172.637 166.024 172.991 165.669 173.258L161.407 175.741C161.052 176.008 160.43 176.008 160.075 175.83Z" fill="#06033E"/>
<path opacity="0.4" d="M166.735 179.645L162.384 177.161C162.029 176.983 162.118 176.628 162.473 176.362L166.735 173.878C167.178 173.612 167.711 173.612 168.066 173.79L172.417 176.274C172.772 176.451 172.683 176.806 172.328 177.072L168.066 179.556C167.711 179.822 167.09 179.822 166.735 179.645Z" fill="#06033E"/>
<path opacity="0.4" d="M173.481 183.548L169.13 181.064C168.775 180.887 168.864 180.532 169.219 180.266L173.481 177.782C173.925 177.516 174.457 177.516 174.812 177.693L179.163 180.177C179.518 180.354 179.429 180.709 179.074 180.975L174.812 183.459C174.368 183.725 173.836 183.725 173.481 183.548Z" fill="#06033E"/>
<path opacity="0.4" d="M109.736 139.281L105.386 136.797C105.031 136.62 105.12 136.265 105.475 135.999L109.736 133.515C110.18 133.249 110.713 133.249 111.068 133.426L115.418 135.91C115.774 136.087 115.685 136.442 115.33 136.708L111.068 139.192C110.713 139.459 110.092 139.459 109.736 139.281Z" fill="#06033E"/>
<path opacity="0.4" d="M103.077 135.467L98.727 132.983C98.3719 132.805 98.4607 132.45 98.8158 132.184L103.077 129.7C103.521 129.434 104.054 129.434 104.409 129.612L108.759 132.096C109.114 132.273 109.026 132.628 108.671 132.894L104.409 135.378C104.054 135.555 103.432 135.644 103.077 135.467Z" fill="#06033E"/>
<path opacity="0.4" d="M96.4191 131.563L92.0688 129.079C91.7137 128.902 91.8025 128.547 92.1576 128.281L96.4191 125.797C96.863 125.531 97.3957 125.531 97.7508 125.708L102.101 128.192C102.456 128.37 102.367 128.724 102.012 128.991L97.7508 131.475C97.3957 131.741 96.7742 131.829 96.4191 131.563Z" fill="#06033E"/>
<path opacity="0.4" d="M89.8498 127.749L85.4995 125.265C85.1444 125.087 85.2332 124.732 85.5883 124.466L89.8498 121.982C90.2937 121.716 90.8264 121.716 91.1815 121.894L95.5317 124.378C95.8869 124.555 95.7981 124.91 95.443 125.176L91.1815 127.66C90.7376 127.926 90.1161 127.926 89.8498 127.749Z" fill="#06033E"/>
<path opacity="0.4" d="M96.6857 123.845L92.3354 121.361C91.9803 121.184 92.0691 120.829 92.4242 120.563L93.8447 119.765C94.2886 119.499 94.8213 119.499 95.1764 119.676L99.5267 122.16C99.8818 122.337 99.7931 122.692 99.4379 122.958L98.0174 123.757C97.5735 123.934 97.0408 124.023 96.6857 123.845Z" fill="#06033E"/>
<path opacity="0.4" d="M105.297 128.813L100.947 126.329C100.592 126.152 100.68 125.797 101.036 125.531L102.456 124.733C102.9 124.466 103.433 124.466 103.788 124.644L108.138 127.128C108.493 127.305 108.404 127.66 108.049 127.926L106.629 128.724C106.274 128.991 105.652 128.991 105.297 128.813Z" fill="#06033E"/>
<path opacity="0.4" d="M111.956 132.628L107.606 130.144C107.251 129.967 107.34 129.612 107.695 129.346L109.115 128.547C109.559 128.281 110.092 128.281 110.447 128.458L114.797 130.942C115.152 131.12 115.064 131.475 114.708 131.741L113.288 132.539C112.933 132.805 112.311 132.805 111.956 132.628Z" fill="#06033E"/>
<path opacity="0.4" d="M118.614 136.442L114.264 133.958C113.909 133.781 113.998 133.426 114.353 133.16L115.773 132.362C116.217 132.096 116.75 132.096 117.105 132.273L121.455 134.757C121.811 134.934 121.722 135.289 121.367 135.555L119.946 136.354C119.502 136.62 118.97 136.62 118.614 136.442Z" fill="#06033E"/>
<path opacity="0.4" d="M125.184 140.257L120.833 137.773C120.478 137.596 120.567 137.241 120.922 136.975L122.343 136.176C122.787 135.91 123.319 135.91 123.674 136.088L128.025 138.571C128.38 138.749 128.291 139.104 127.936 139.37L126.515 140.168C126.16 140.434 125.539 140.434 125.184 140.257Z" fill="#06033E"/>
<path opacity="0.4" d="M162.206 161.636L157.856 159.152C157.501 158.975 157.59 158.62 157.945 158.354L159.365 157.556C159.809 157.289 160.342 157.289 160.697 157.467L165.047 159.951C165.402 160.128 165.314 160.483 164.958 160.749L163.538 161.548C163.183 161.814 162.561 161.814 162.206 161.636Z" fill="#06033E"/>
<path opacity="0.4" d="M168.776 165.451L164.425 162.967C164.07 162.79 164.159 162.435 164.514 162.169L165.935 161.37C166.378 161.104 166.911 161.104 167.266 161.281L171.617 163.765C171.972 163.943 171.883 164.298 171.528 164.564L170.107 165.362C169.752 165.628 169.131 165.628 168.776 165.451Z" fill="#06033E"/>
<path opacity="0.4" d="M175.435 169.266L171.084 166.782C170.729 166.604 170.818 166.249 171.173 165.983L172.594 165.185C173.038 164.919 173.57 164.919 173.925 165.096L178.276 167.58C178.631 167.757 178.542 168.112 178.187 168.378L176.766 169.177C176.411 169.443 175.79 169.443 175.435 169.266Z" fill="#06033E"/>
<path opacity="0.4" d="M182.093 173.08L177.743 170.596C177.388 170.419 177.476 170.064 177.831 169.798L179.252 168.999C179.696 168.733 180.229 168.733 180.584 168.911L184.934 171.394C185.289 171.572 185.2 171.927 184.845 172.193L183.425 172.991C182.981 173.257 182.448 173.257 182.093 173.08Z" fill="#06033E"/>
<path opacity="0.4" d="M116.484 143.096L112.133 140.612C111.778 140.434 111.867 140.08 112.222 139.813L116.484 137.329C116.927 137.063 117.46 137.063 117.815 137.241L122.166 139.725C122.521 139.902 122.432 140.257 122.077 140.523L117.815 143.007C117.371 143.273 116.839 143.362 116.484 143.096Z" fill="#06033E"/>
<path opacity="0.4" d="M123.143 146.999L118.792 144.515C118.437 144.338 118.526 143.983 118.881 143.717L123.143 141.233C123.587 140.967 124.119 140.967 124.474 141.144L128.825 143.628C129.18 143.805 129.091 144.16 128.736 144.426L124.474 146.91C124.119 147.176 123.498 147.176 123.143 146.999Z" fill="#06033E"/>
<path opacity="0.4" d="M129.802 150.814L125.452 148.33C125.097 148.152 125.185 147.797 125.54 147.531L129.802 145.047C130.246 144.781 130.779 144.781 131.134 144.959L135.484 147.443C135.839 147.62 135.75 147.975 135.395 148.241L131.134 150.725C130.779 150.991 130.157 150.991 129.802 150.814Z" fill="#06033E"/>
<path opacity="0.4" d="M136.548 154.717L132.198 152.233C131.843 152.055 131.931 151.701 132.287 151.434L136.548 148.951C136.992 148.684 137.525 148.684 137.88 148.862L142.23 151.346C142.585 151.523 142.496 151.878 142.141 152.144L137.88 154.628C137.436 154.894 136.814 154.894 136.548 154.717Z" fill="#06033E"/>
<path opacity="0.4" d="M143.207 158.531L138.857 156.048C138.502 155.87 138.591 155.515 138.946 155.249L143.207 152.765C143.651 152.499 144.184 152.499 144.539 152.677L148.889 155.16C149.244 155.338 149.156 155.693 148.8 155.959L144.539 158.443C144.184 158.709 143.562 158.709 143.207 158.531Z" fill="#06033E"/>
<path opacity="0.4" d="M149.865 162.435L145.515 159.951C145.16 159.773 145.249 159.419 145.604 159.152L149.865 156.669C150.309 156.402 150.842 156.402 151.197 156.58L155.547 159.064C155.903 159.241 155.814 159.596 155.459 159.862L151.197 162.346C150.842 162.612 150.221 162.612 149.865 162.435Z" fill="#06033E"/>
<path opacity="0.4" d="M156.524 166.249L152.173 163.765C151.818 163.588 151.907 163.233 152.262 162.967L156.524 160.483C156.968 160.217 157.5 160.217 157.855 160.394L162.206 162.878C162.561 163.056 162.472 163.411 162.117 163.677L157.855 166.161C157.5 166.427 156.879 166.427 156.524 166.249Z" fill="#06033E"/>
<path opacity="0.4" d="M163.272 170.153L158.921 167.669C158.566 167.491 158.655 167.136 159.01 166.87L163.272 164.386C163.716 164.12 164.248 164.12 164.603 164.298L168.954 166.782C169.309 166.959 169.22 167.314 168.865 167.58L164.603 170.064C164.248 170.33 163.627 170.33 163.272 170.153Z" fill="#06033E"/>
<path opacity="0.4" d="M169.93 173.967L165.58 171.483C165.224 171.306 165.313 170.951 165.668 170.685L169.93 168.201C170.374 167.935 170.906 167.935 171.262 168.112L175.612 170.596C175.967 170.774 175.878 171.128 175.523 171.395L171.262 173.878C170.906 174.145 170.285 174.145 169.93 173.967Z" fill="#06033E"/>
<path opacity="0.4" d="M78.2186 143.628L65.4341 136.265C65.079 136.088 65.1677 135.733 65.5229 135.467L69.7844 132.983C70.2283 132.717 70.7609 132.717 71.1161 132.894L83.9005 140.257C84.2557 140.434 84.1669 140.789 83.8118 141.055L79.5503 143.539C79.1951 143.805 78.5737 143.805 78.2186 143.628Z" fill="#06033E"/>
<path opacity="0.4" d="M160.343 191L147.558 183.637C147.203 183.459 147.292 183.104 147.647 182.838L151.908 180.354C152.352 180.088 152.885 180.088 153.24 180.266L166.025 187.629C166.38 187.806 166.291 188.161 165.936 188.427L161.674 190.911C161.319 191.177 160.698 191.177 160.343 191Z" fill="#06033E"/>
<path opacity="0.4" d="M133.619 184.08L129.269 181.596C128.914 181.419 129.003 181.064 129.358 180.798L134.507 177.871C134.951 177.604 135.484 177.604 135.839 177.782L140.189 180.266C140.544 180.443 140.455 180.798 140.1 181.064L134.951 183.992C134.596 184.258 133.974 184.258 133.619 184.08Z" fill="#06033E"/>
<path opacity="0.4" d="M85.0553 156.048L78.1304 152.056C77.7752 151.878 77.864 151.523 78.2191 151.257L83.3685 148.33C83.8124 148.064 84.345 148.064 84.7002 148.241L91.6251 152.233C91.9802 152.41 91.8914 152.765 91.5363 153.031L86.387 155.959C86.0319 156.225 85.4104 156.225 85.0553 156.048Z" fill="#06033E"/>
<path opacity="0.4" d="M127.227 180.354L120.302 176.362C119.947 176.185 120.036 175.83 120.391 175.564L125.54 172.637C125.984 172.37 126.517 172.37 126.872 172.548L133.797 176.54C134.152 176.717 134.063 177.072 133.708 177.338L128.559 180.266C128.115 180.532 127.494 180.532 127.227 180.354Z" fill="#06033E"/>
<path opacity="0.4" d="M94.732 161.636L87.8071 157.644C87.452 157.467 87.5408 157.112 87.8959 156.846L93.0452 153.918C93.4891 153.652 94.0218 153.652 94.3769 153.83L101.302 157.822C101.657 157.999 101.568 158.354 101.213 158.62L96.0638 161.548C95.7086 161.814 95.0872 161.814 94.732 161.636Z" fill="#06033E"/>
<path opacity="0.4" d="M94.3774 153.83L124.474 171.217C124.829 171.395 124.829 171.749 124.474 172.015L119.236 175.032C118.881 175.209 118.26 175.209 117.904 175.032L87.8076 157.644L94.3774 153.83Z" fill="#06033E"/>
<path opacity="0.4" d="M152.352 191.088L157.146 193.838C157.412 194.016 157.412 194.282 157.057 194.459L154.926 195.701C154.571 195.879 154.127 195.879 153.772 195.79L148.978 193.04C148.712 192.863 148.712 192.597 149.067 192.419L151.197 191.177C151.553 190.911 151.996 190.911 152.352 191.088Z" fill="#06033E"/>
<path opacity="0.4" d="M145.605 187.185L150.399 189.935C150.665 190.113 150.665 190.379 150.31 190.556L148.268 191.798C147.913 191.976 147.469 191.976 147.114 191.887L142.32 189.137C142.053 188.959 142.053 188.693 142.409 188.516L144.539 187.274C144.806 187.008 145.25 187.008 145.605 187.185Z" fill="#06033E"/>
<path opacity="0.4" d="M138.856 183.282L143.651 186.032C143.917 186.209 143.917 186.475 143.562 186.653L141.431 187.895C141.076 188.072 140.632 188.072 140.277 187.984L135.483 185.234C135.216 185.056 135.216 184.79 135.572 184.613L137.702 183.371C138.146 183.193 138.59 183.193 138.856 183.282Z" fill="#06033E"/>
<path opacity="0.4" d="M149.244 185.056L154.038 187.806C154.305 187.983 154.305 188.25 153.95 188.427L151.819 189.669C151.464 189.846 151.02 189.846 150.665 189.758L145.871 187.008C145.604 186.83 145.604 186.564 145.959 186.387L148.09 185.145C148.445 184.879 148.978 184.879 149.244 185.056Z" fill="#06033E"/>
</g>
<path d="M62.4162 143.007L58.0659 140.523C57.7108 140.346 57.7996 139.991 58.1547 139.725L63.304 136.797C63.7479 136.531 64.2806 136.531 64.6357 136.708L68.986 139.192C69.3411 139.37 69.2523 139.725 68.8972 139.991L63.7479 142.918C63.3928 143.184 62.7713 143.184 62.4162 143.007Z" fill="#233349"/>
<path d="M69.0754 146.822L64.7251 144.338C64.37 144.16 64.4588 143.805 64.8139 143.539L69.9632 140.612C70.4071 140.346 70.9398 140.346 71.2949 140.523L75.6452 143.007C76.0003 143.184 75.9115 143.539 75.5564 143.805L70.4071 146.733C70.052 146.999 69.4305 147.088 69.0754 146.822Z" fill="#233349"/>
<path d="M75.8224 150.725L71.4722 148.241C71.117 148.064 71.2058 147.709 71.5609 147.443L76.7102 144.515C77.1542 144.249 77.6868 144.249 78.042 144.426L82.3922 146.91C82.7474 147.088 82.6586 147.443 82.3034 147.709L77.1542 150.636C76.7102 150.902 76.1776 150.902 75.8224 150.725Z" fill="#233349"/>
<path d="M85.0549 147.531L80.7046 145.047C80.3495 144.87 80.4382 144.515 80.7934 144.249L85.0549 141.765C85.4988 141.499 86.0315 141.499 86.3866 141.676L90.7368 144.16C91.092 144.338 91.0032 144.693 90.6481 144.959L86.3866 147.443C86.0315 147.709 85.41 147.709 85.0549 147.531Z" fill="#233349"/>
<path d="M91.714 151.346L87.3638 148.862C87.0086 148.685 87.0974 148.33 87.4525 148.064L91.714 145.58C92.158 145.314 92.6906 145.314 93.0458 145.491L97.396 147.975C97.7512 148.152 97.6624 148.507 97.3073 148.773L93.0458 151.257C92.6906 151.523 92.0692 151.612 91.714 151.346Z" fill="#233349"/>
<path d="M98.3733 155.249L94.1118 152.765C93.7567 152.588 93.8455 152.233 94.2006 151.967L98.4621 149.483C98.906 149.217 99.4387 149.217 99.7938 149.394L104.144 151.878C104.499 152.055 104.41 152.41 104.055 152.676L99.7938 155.16C99.3499 155.427 98.7284 155.427 98.3733 155.249Z" fill="#233349"/>
<path d="M105.119 159.064L100.769 156.58C100.414 156.402 100.503 156.047 100.858 155.781L105.119 153.297C105.563 153.031 106.096 153.031 106.451 153.209L110.801 155.693C111.156 155.87 111.068 156.225 110.713 156.491L106.451 158.975C106.096 159.241 105.474 159.33 105.119 159.064Z" fill="#233349"/>
<path d="M111.778 162.967L107.428 160.483C107.073 160.306 107.162 159.951 107.517 159.685L111.778 157.201C112.222 156.935 112.755 156.935 113.11 157.112L117.46 159.596C117.816 159.773 117.727 160.128 117.372 160.394L113.11 162.878C112.755 163.144 112.134 163.144 111.778 162.967Z" fill="#233349"/>
<path d="M118.437 166.782L114.086 164.298C113.731 164.12 113.82 163.765 114.175 163.499L118.437 161.015C118.881 160.749 119.413 160.749 119.768 160.927L124.119 163.411C124.474 163.588 124.385 163.943 124.03 164.209L119.768 166.693C119.413 166.959 118.792 167.048 118.437 166.782Z" fill="#233349"/>
<path d="M125.184 170.685L120.833 168.201C120.478 168.024 120.567 167.669 120.922 167.403L125.184 164.919C125.628 164.653 126.16 164.653 126.515 164.83L130.866 167.314C131.221 167.491 131.132 167.846 130.777 168.112L126.515 170.596C126.072 170.862 125.539 170.862 125.184 170.685Z" fill="#233349"/>
<path d="M131.843 174.499L127.493 172.016C127.138 171.838 127.226 171.483 127.581 171.217L131.843 168.733C132.287 168.467 132.82 168.467 133.175 168.645L137.525 171.128C137.88 171.306 137.791 171.661 137.436 171.927L133.175 174.411C132.82 174.677 132.198 174.766 131.843 174.499Z" fill="#233349"/>
<path d="M138.501 178.403L134.151 175.919C133.796 175.741 133.885 175.387 134.24 175.12L138.501 172.637C138.945 172.37 139.478 172.37 139.833 172.548L144.183 175.032C144.538 175.209 144.449 175.564 144.094 175.83L139.833 178.314C139.478 178.58 138.856 178.58 138.501 178.403Z" fill="#233349"/>
<path d="M145.248 182.217L140.898 179.733C140.543 179.556 140.632 179.201 140.987 178.935L145.248 176.451C145.692 176.185 146.225 176.185 146.58 176.362L150.93 178.846C151.285 179.024 151.197 179.379 150.841 179.645L146.58 182.129C146.136 182.395 145.603 182.395 145.248 182.217Z" fill="#233349"/>
<path d="M94.9103 145.668L90.5601 143.184C90.2049 143.007 90.2937 142.652 90.6488 142.386L94.9103 139.902C95.3542 139.636 95.8869 139.636 96.242 139.813L100.592 142.297C100.947 142.475 100.859 142.83 100.504 143.096L96.242 145.58C95.8869 145.846 95.2655 145.934 94.9103 145.668Z" fill="#233349"/>
<path d="M88.0734 141.765L83.7231 139.281C83.368 139.104 83.4568 138.749 83.8119 138.483L88.0734 135.999C88.5173 135.733 89.05 135.733 89.4051 135.91L93.7554 138.394C94.1105 138.571 94.0217 138.926 93.6666 139.192L89.4051 141.676C89.05 141.942 88.4285 141.942 88.0734 141.765Z" fill="#233349"/>
<path d="M81.3264 137.862L72.0044 132.45C71.6493 132.273 71.738 131.918 72.0932 131.652L76.3547 129.168C76.7986 128.902 77.3313 128.902 77.6864 129.079L87.0084 134.491C87.3635 134.668 87.2747 135.023 86.9196 135.289L82.6581 137.773C82.303 138.039 81.6815 138.039 81.3264 137.862Z" fill="#233349"/>
<path d="M86.0322 133.071L78.4858 128.724C78.1307 128.547 78.2195 128.192 78.5746 127.926L82.8361 125.442C83.28 125.176 83.8127 125.176 84.1678 125.353L91.7142 129.7C92.0693 129.878 91.9805 130.233 91.6254 130.499L87.3639 132.983C87.0088 133.249 86.3873 133.337 86.0322 133.071Z" fill="#233349"/>
<path d="M101.569 149.572L97.2183 147.088C96.8631 146.91 96.9519 146.555 97.307 146.289L101.569 143.805C102.012 143.539 102.545 143.539 102.9 143.717L107.251 146.201C107.606 146.378 107.517 146.733 107.162 146.999L102.9 149.483C102.545 149.749 101.924 149.749 101.569 149.572Z" fill="#233349"/>
<path d="M108.228 153.386L103.877 150.902C103.522 150.725 103.611 150.37 103.966 150.104L108.228 147.62C108.672 147.354 109.204 147.354 109.559 147.531L113.91 150.015C114.265 150.193 114.176 150.547 113.821 150.814L109.559 153.298C109.204 153.564 108.583 153.652 108.228 153.386Z" fill="#233349"/>
<path d="M114.975 157.289L110.625 154.806C110.269 154.628 110.358 154.273 110.713 154.007L114.975 151.523C115.419 151.257 115.951 151.257 116.306 151.435L120.657 153.918C121.012 154.096 120.923 154.451 120.568 154.717L116.306 157.201C115.863 157.467 115.33 157.467 114.975 157.289Z" fill="#233349"/>
<path d="M121.633 161.104L117.283 158.62C116.928 158.443 117.016 158.088 117.371 157.822L121.633 155.338C122.077 155.072 122.61 155.072 122.965 155.249L127.315 157.733C127.67 157.91 127.581 158.265 127.226 158.531L122.965 161.015C122.61 161.282 121.988 161.282 121.633 161.104Z" fill="#233349"/>
<path d="M128.292 165.007L123.942 162.523C123.587 162.346 123.676 161.991 124.031 161.725L128.292 159.241C128.736 158.975 129.269 158.975 129.624 159.152L133.974 161.636C134.329 161.814 134.24 162.169 133.885 162.435L129.624 164.919C129.269 165.185 128.647 165.185 128.292 165.007Z" fill="#233349"/>
<path d="M135.039 168.822L130.689 166.338C130.334 166.161 130.423 165.806 130.778 165.54L135.039 163.056C135.483 162.789 136.016 162.789 136.371 162.967L140.721 165.451C141.076 165.628 140.988 165.983 140.632 166.249L136.371 168.733C135.927 168.999 135.394 168.999 135.039 168.822Z" fill="#233349"/>
<path d="M141.697 172.725L137.347 170.241C136.992 170.064 137.081 169.709 137.436 169.443L141.697 166.959C142.141 166.693 142.674 166.693 143.029 166.87L147.379 169.354C147.735 169.532 147.646 169.886 147.291 170.153L143.029 172.636C142.674 172.903 142.053 172.903 141.697 172.725Z" fill="#233349"/>
<path d="M148.357 176.54L144.006 174.056C143.651 173.878 143.74 173.524 144.095 173.257L148.357 170.774C148.801 170.507 149.333 170.507 149.688 170.685L154.039 173.169C154.394 173.346 154.305 173.701 153.95 173.967L149.688 176.451C149.333 176.717 148.712 176.717 148.357 176.54Z" fill="#233349"/>
<path d="M155.104 180.443L150.753 177.959C150.398 177.782 150.487 177.427 150.842 177.161L155.104 174.677C155.548 174.411 156.08 174.411 156.435 174.588L160.786 177.072C161.141 177.249 161.052 177.604 160.697 177.87L156.435 180.354C155.991 180.62 155.37 180.62 155.104 180.443Z" fill="#233349"/>
<path d="M166.911 187.274L157.5 181.862C157.145 181.685 157.234 181.33 157.589 181.064L161.851 178.58C162.295 178.314 162.827 178.314 163.182 178.491L172.593 183.903C172.948 184.08 172.86 184.435 172.504 184.701L168.243 187.185C167.888 187.451 167.266 187.451 166.911 187.274Z" fill="#233349"/>
<path d="M179.962 179.733L171.972 175.12C171.617 174.943 171.706 174.588 172.061 174.322L176.322 171.838C176.766 171.572 177.299 171.572 177.654 171.749L185.644 176.362C186 176.54 185.911 176.895 185.556 177.161L181.294 179.645C180.939 179.911 180.318 180 179.962 179.733Z" fill="#233349"/>
<path d="M113.288 148.773L108.938 146.289C108.583 146.112 108.672 145.757 109.027 145.491L113.288 143.007C113.732 142.741 114.265 142.741 114.62 142.918L118.97 145.402C119.325 145.58 119.237 145.934 118.881 146.201L114.62 148.685C114.265 148.951 113.643 149.039 113.288 148.773Z" fill="#233349"/>
<path d="M106.451 144.87L102.101 142.386C101.746 142.209 101.835 141.854 102.19 141.588L106.451 139.104C106.895 138.838 107.428 138.838 107.783 139.015L112.133 141.499C112.488 141.676 112.4 142.031 112.045 142.297L107.783 144.781C107.428 145.047 106.806 145.047 106.451 144.87Z" fill="#233349"/>
<path d="M99.6154 140.878L95.2651 138.394C94.91 138.217 94.9988 137.862 95.3539 137.596L99.6154 135.112C100.059 134.846 100.592 134.846 100.947 135.023L105.297 137.507C105.653 137.684 105.564 138.039 105.209 138.305L100.947 140.789C100.503 141.055 99.9705 141.055 99.6154 140.878Z" fill="#233349"/>
<path d="M92.6906 136.975L88.3403 134.491C87.9852 134.313 88.074 133.959 88.4291 133.692L92.6906 131.208C93.1345 130.942 93.6672 130.942 94.0223 131.12L98.3726 133.604C98.7277 133.781 98.6389 134.136 98.2838 134.402L94.0223 136.886C93.6672 137.152 93.0457 137.152 92.6906 136.975Z" fill="#233349"/>
<path d="M119.946 152.676L115.596 150.193C115.241 150.015 115.33 149.66 115.685 149.394L119.946 146.91C120.39 146.644 120.923 146.644 121.278 146.822L125.628 149.305C125.984 149.483 125.895 149.838 125.54 150.104L121.278 152.588C120.923 152.854 120.302 152.854 119.946 152.676Z" fill="#233349"/>
<path d="M126.694 156.491L122.343 154.007C121.988 153.83 122.077 153.475 122.432 153.209L126.694 150.725C127.137 150.459 127.67 150.459 128.025 150.636L132.376 153.12C132.731 153.297 132.642 153.652 132.287 153.918L128.025 156.402C127.581 156.669 127.049 156.757 126.694 156.491Z" fill="#233349"/>
<path d="M133.353 160.394L129.002 157.91C128.647 157.733 128.736 157.378 129.091 157.112L133.353 154.628C133.797 154.362 134.329 154.362 134.684 154.539L139.035 157.023C139.39 157.201 139.301 157.556 138.946 157.822L134.684 160.306C134.329 160.572 133.708 160.572 133.353 160.394Z" fill="#233349"/>
<path d="M140.011 164.209L135.661 161.725C135.306 161.548 135.394 161.193 135.749 160.927L140.011 158.443C140.455 158.177 140.987 158.177 141.343 158.354L145.693 160.838C146.048 161.015 145.959 161.37 145.604 161.636L141.343 164.12C140.987 164.386 140.366 164.386 140.011 164.209Z" fill="#233349"/>
<path d="M146.758 168.112L142.408 165.628C142.053 165.451 142.141 165.096 142.496 164.83L146.758 162.346C147.202 162.08 147.735 162.08 148.09 162.257L152.44 164.741C152.795 164.919 152.706 165.273 152.351 165.54L148.09 168.024C147.646 168.29 147.024 168.29 146.758 168.112Z" fill="#233349"/>
<path d="M153.417 171.927L149.067 169.443C148.712 169.265 148.801 168.911 149.156 168.645L153.417 166.161C153.861 165.894 154.394 165.894 154.749 166.072L159.099 168.556C159.454 168.733 159.366 169.088 159.01 169.354L154.749 171.838C154.394 172.104 153.772 172.104 153.417 171.927Z" fill="#233349"/>
<path d="M160.075 175.83L155.725 173.346C155.37 173.169 155.459 172.814 155.814 172.548L160.075 170.064C160.519 169.798 161.052 169.798 161.407 169.975L165.757 172.459C166.112 172.637 166.024 172.991 165.669 173.258L161.407 175.741C161.052 176.008 160.43 176.008 160.075 175.83Z" fill="#233349"/>
<path d="M166.735 179.645L162.384 177.161C162.029 176.983 162.118 176.628 162.473 176.362L166.735 173.878C167.178 173.612 167.711 173.612 168.066 173.79L172.417 176.274C172.772 176.451 172.683 176.806 172.328 177.072L168.066 179.556C167.711 179.822 167.09 179.822 166.735 179.645Z" fill="#233349"/>
<path d="M173.481 183.548L169.13 181.064C168.775 180.887 168.864 180.532 169.219 180.266L173.481 177.782C173.925 177.516 174.457 177.516 174.812 177.693L179.163 180.177C179.518 180.354 179.429 180.709 179.074 180.975L174.812 183.459C174.368 183.725 173.836 183.725 173.481 183.548Z" fill="#233349"/>
<path d="M109.736 139.281L105.386 136.797C105.031 136.62 105.12 136.265 105.475 135.999L109.736 133.515C110.18 133.249 110.713 133.249 111.068 133.426L115.418 135.91C115.774 136.087 115.685 136.442 115.33 136.708L111.068 139.192C110.713 139.459 110.092 139.459 109.736 139.281Z" fill="#233349"/>
<path d="M103.077 135.467L98.727 132.983C98.3719 132.805 98.4607 132.45 98.8158 132.184L103.077 129.7C103.521 129.434 104.054 129.434 104.409 129.612L108.759 132.096C109.114 132.273 109.026 132.628 108.671 132.894L104.409 135.378C104.054 135.555 103.432 135.644 103.077 135.467Z" fill="#233349"/>
<path d="M96.4191 131.563L92.0688 129.079C91.7137 128.902 91.8025 128.547 92.1576 128.281L96.4191 125.797C96.863 125.531 97.3957 125.531 97.7508 125.708L102.101 128.192C102.456 128.37 102.367 128.724 102.012 128.991L97.7508 131.475C97.3957 131.741 96.7742 131.829 96.4191 131.563Z" fill="#233349"/>
<path d="M89.8498 127.749L85.4995 125.265C85.1444 125.087 85.2332 124.732 85.5883 124.466L89.8498 121.982C90.2937 121.716 90.8264 121.716 91.1815 121.894L95.5317 124.378C95.8869 124.555 95.7981 124.91 95.443 125.176L91.1815 127.66C90.7376 127.926 90.1161 127.926 89.8498 127.749Z" fill="#233349"/>
<path d="M96.6857 123.845L92.3354 121.361C91.9803 121.184 92.0691 120.829 92.4242 120.563L93.8447 119.765C94.2886 119.499 94.8213 119.499 95.1764 119.676L99.5267 122.16C99.8818 122.337 99.7931 122.692 99.4379 122.958L98.0174 123.757C97.5735 123.934 97.0408 124.023 96.6857 123.845Z" fill="#233349"/>
<path d="M105.297 128.813L100.947 126.329C100.592 126.152 100.68 125.797 101.036 125.531L102.456 124.733C102.9 124.466 103.433 124.466 103.788 124.644L108.138 127.128C108.493 127.305 108.404 127.66 108.049 127.926L106.629 128.724C106.274 128.991 105.652 128.991 105.297 128.813Z" fill="#233349"/>
<path d="M111.956 132.628L107.606 130.144C107.251 129.967 107.34 129.612 107.695 129.346L109.115 128.547C109.559 128.281 110.092 128.281 110.447 128.458L114.797 130.942C115.152 131.12 115.064 131.475 114.708 131.741L113.288 132.539C112.933 132.805 112.311 132.805 111.956 132.628Z" fill="#233349"/>
<path d="M118.614 136.442L114.264 133.958C113.909 133.781 113.998 133.426 114.353 133.16L115.773 132.362C116.217 132.096 116.75 132.096 117.105 132.273L121.455 134.757C121.811 134.934 121.722 135.289 121.367 135.555L119.946 136.354C119.502 136.62 118.97 136.62 118.614 136.442Z" fill="#233349"/>
<path d="M125.184 140.257L120.833 137.773C120.478 137.596 120.567 137.241 120.922 136.975L122.343 136.176C122.787 135.91 123.319 135.91 123.674 136.088L128.025 138.571C128.38 138.749 128.291 139.104 127.936 139.37L126.515 140.168C126.16 140.434 125.539 140.434 125.184 140.257Z" fill="#233349"/>
<path d="M162.206 161.636L157.856 159.152C157.501 158.975 157.59 158.62 157.945 158.354L159.365 157.556C159.809 157.289 160.342 157.289 160.697 157.467L165.047 159.951C165.402 160.128 165.314 160.483 164.958 160.749L163.538 161.548C163.183 161.814 162.561 161.814 162.206 161.636Z" fill="#233349"/>
<path d="M168.776 165.451L164.425 162.967C164.07 162.79 164.159 162.435 164.514 162.169L165.935 161.37C166.378 161.104 166.911 161.104 167.266 161.281L171.617 163.765C171.972 163.943 171.883 164.298 171.528 164.564L170.107 165.362C169.752 165.628 169.131 165.628 168.776 165.451Z" fill="#233349"/>
<path d="M175.435 169.266L171.084 166.782C170.729 166.604 170.818 166.249 171.173 165.983L172.594 165.185C173.038 164.919 173.57 164.919 173.925 165.096L178.276 167.58C178.631 167.757 178.542 168.112 178.187 168.378L176.766 169.177C176.411 169.443 175.79 169.443 175.435 169.266Z" fill="#233349"/>
<path d="M182.093 173.08L177.743 170.596C177.388 170.419 177.476 170.064 177.831 169.798L179.252 168.999C179.696 168.733 180.229 168.733 180.584 168.911L184.934 171.394C185.289 171.572 185.2 171.927 184.845 172.193L183.425 172.991C182.981 173.257 182.448 173.257 182.093 173.08Z" fill="#233349"/>
<path d="M116.484 143.096L112.133 140.612C111.778 140.434 111.867 140.08 112.222 139.813L116.484 137.329C116.927 137.063 117.46 137.063 117.815 137.241L122.166 139.725C122.521 139.902 122.432 140.257 122.077 140.523L117.815 143.007C117.371 143.273 116.839 143.362 116.484 143.096Z" fill="#233349"/>
<path d="M123.143 146.999L118.792 144.515C118.437 144.338 118.526 143.983 118.881 143.717L123.143 141.233C123.587 140.967 124.119 140.967 124.474 141.144L128.825 143.628C129.18 143.805 129.091 144.16 128.736 144.426L124.474 146.91C124.119 147.176 123.498 147.176 123.143 146.999Z" fill="#233349"/>
<path d="M129.802 150.814L125.452 148.33C125.097 148.152 125.185 147.797 125.54 147.531L129.802 145.047C130.246 144.781 130.779 144.781 131.134 144.959L135.484 147.443C135.839 147.62 135.75 147.975 135.395 148.241L131.134 150.725C130.779 150.991 130.157 150.991 129.802 150.814Z" fill="#233349"/>
<path d="M136.548 154.717L132.198 152.233C131.843 152.055 131.931 151.701 132.287 151.434L136.548 148.951C136.992 148.684 137.525 148.684 137.88 148.862L142.23 151.346C142.585 151.523 142.496 151.878 142.141 152.144L137.88 154.628C137.436 154.894 136.814 154.894 136.548 154.717Z" fill="#233349"/>
<path d="M143.207 158.531L138.857 156.048C138.502 155.87 138.591 155.515 138.946 155.249L143.207 152.765C143.651 152.499 144.184 152.499 144.539 152.677L148.889 155.16C149.244 155.338 149.156 155.693 148.8 155.959L144.539 158.443C144.184 158.709 143.562 158.709 143.207 158.531Z" fill="#233349"/>
<path d="M149.865 162.435L145.515 159.951C145.16 159.773 145.249 159.419 145.604 159.152L149.865 156.669C150.309 156.402 150.842 156.402 151.197 156.58L155.547 159.064C155.903 159.241 155.814 159.596 155.459 159.862L151.197 162.346C150.842 162.612 150.221 162.612 149.865 162.435Z" fill="#233349"/>
<path d="M156.524 166.249L152.173 163.765C151.818 163.588 151.907 163.233 152.262 162.967L156.524 160.483C156.968 160.217 157.5 160.217 157.855 160.394L162.206 162.878C162.561 163.056 162.472 163.411 162.117 163.677L157.855 166.161C157.5 166.427 156.879 166.427 156.524 166.249Z" fill="#233349"/>
<path d="M163.272 170.153L158.921 167.669C158.566 167.491 158.655 167.136 159.01 166.87L163.272 164.386C163.716 164.12 164.248 164.12 164.603 164.298L168.954 166.782C169.309 166.959 169.22 167.314 168.865 167.58L164.603 170.064C164.248 170.33 163.627 170.33 163.272 170.153Z" fill="#233349"/>
<path d="M169.93 173.967L165.58 171.483C165.224 171.306 165.313 170.951 165.668 170.685L169.93 168.201C170.374 167.935 170.906 167.935 171.262 168.112L175.612 170.596C175.967 170.774 175.878 171.128 175.523 171.395L171.262 173.878C170.906 174.145 170.285 174.145 169.93 173.967Z" fill="#233349"/>
<path d="M78.2186 143.628L65.4341 136.265C65.079 136.088 65.1677 135.733 65.5229 135.467L69.7844 132.983C70.2283 132.717 70.7609 132.717 71.1161 132.894L83.9005 140.257C84.2557 140.434 84.1669 140.789 83.8118 141.055L79.5503 143.539C79.1951 143.805 78.5737 143.805 78.2186 143.628Z" fill="#233349"/>
<path d="M160.343 191L147.558 183.637C147.203 183.459 147.292 183.104 147.647 182.838L151.908 180.354C152.352 180.088 152.885 180.088 153.24 180.266L166.025 187.629C166.38 187.806 166.291 188.161 165.936 188.427L161.674 190.911C161.319 191.177 160.698 191.177 160.343 191Z" fill="#233349"/>
<path d="M133.619 184.08L129.269 181.596C128.914 181.419 129.003 181.064 129.358 180.798L134.507 177.871C134.951 177.604 135.484 177.604 135.839 177.782L140.189 180.266C140.544 180.443 140.455 180.798 140.1 181.064L134.951 183.992C134.596 184.258 133.974 184.258 133.619 184.08Z" fill="#233349"/>
<path d="M85.0553 156.048L78.1304 152.056C77.7752 151.878 77.864 151.523 78.2191 151.257L83.3685 148.33C83.8124 148.064 84.345 148.064 84.7002 148.241L91.6251 152.233C91.9802 152.41 91.8914 152.765 91.5363 153.031L86.387 155.959C86.0319 156.225 85.4104 156.225 85.0553 156.048Z" fill="#233349"/>
<path d="M127.227 180.354L120.302 176.362C119.947 176.185 120.036 175.83 120.391 175.564L125.54 172.637C125.984 172.37 126.517 172.37 126.872 172.548L133.797 176.54C134.152 176.717 134.063 177.072 133.708 177.338L128.559 180.266C128.115 180.532 127.494 180.532 127.227 180.354Z" fill="#233349"/>
<path d="M94.732 161.636L87.8071 157.644C87.452 157.467 87.5408 157.112 87.8959 156.846L93.0452 153.918C93.4891 153.652 94.0218 153.652 94.3769 153.83L101.302 157.822C101.657 157.999 101.568 158.354 101.213 158.62L96.0638 161.548C95.7086 161.814 95.0872 161.814 94.732 161.636Z" fill="#233349"/>
<path d="M94.3774 153.83L124.474 171.217C124.829 171.395 124.829 171.749 124.474 172.015L119.236 175.032C118.881 175.209 118.26 175.209 117.904 175.032L87.8076 157.644L94.3774 153.83Z" fill="#233349"/>
<path d="M152.352 191.088L157.146 193.838C157.412 194.016 157.412 194.282 157.057 194.459L154.926 195.701C154.571 195.879 154.127 195.879 153.772 195.79L148.978 193.04C148.712 192.863 148.712 192.597 149.067 192.419L151.197 191.177C151.553 190.911 151.996 190.911 152.352 191.088Z" fill="#233349"/>
<path d="M145.605 187.185L150.399 189.935C150.665 190.113 150.665 190.379 150.31 190.556L148.268 191.798C147.913 191.976 147.469 191.976 147.114 191.887L142.32 189.137C142.053 188.959 142.053 188.693 142.409 188.516L144.539 187.274C144.806 187.008 145.25 187.008 145.605 187.185Z" fill="#233349"/>
<path d="M138.856 183.282L143.651 186.032C143.917 186.209 143.917 186.475 143.562 186.653L141.431 187.895C141.076 188.072 140.632 188.072 140.277 187.984L135.483 185.234C135.216 185.056 135.216 184.79 135.572 184.613L137.702 183.371C138.146 183.193 138.59 183.193 138.856 183.282Z" fill="#233349"/>
<path d="M149.244 185.056L154.038 187.806C154.305 187.983 154.305 188.25 153.95 188.427L151.819 189.669C151.464 189.846 151.02 189.846 150.665 189.758L145.871 187.008C145.604 186.83 145.604 186.564 145.959 186.387L148.09 185.145C148.445 184.879 148.978 184.879 149.244 185.056Z" fill="#233349"/>
<path d="M220.004 177.249L92.3366 103.53C90.2946 102.377 89.3181 99.5385 90.0283 97.232L118.882 3.55301C119.592 1.24652 121.812 0.270702 123.854 1.42395L251.61 75.1429C253.652 76.2961 254.628 79.1349 253.918 81.4414L225.064 175.12C224.265 177.427 222.046 178.403 220.004 177.249Z" fill="#1A2638"/>
<path d="M218.849 173.967L94.9998 102.466C93.0466 101.401 92.07 98.6514 92.7802 96.4336L120.391 6.83535C121.101 4.61757 123.232 3.73046 125.097 4.795L248.946 76.2962C250.899 77.3607 251.876 80.1108 251.166 82.3285L223.555 171.927C222.844 174.145 220.714 175.032 218.849 173.967Z" fill="url(#paint0_linear)"/>
<path opacity="0.4" d="M218.849 173.967L94.9998 102.466C93.0466 101.401 92.07 98.6514 92.7802 96.4336L120.391 6.83535C121.101 4.61757 123.232 3.73046 125.097 4.795L248.946 76.2962C250.899 77.3607 251.876 80.1108 251.166 82.3285L223.555 171.927C222.844 174.145 220.714 175.032 218.849 173.967Z" fill="#06033E"/>
<path d="M218.849 173.967L94.9998 102.466C93.0466 101.401 92.07 98.6514 92.7802 96.4336L120.391 6.83535C121.101 4.61757 123.232 3.73046 125.097 4.795L248.946 76.2962C250.899 77.3607 251.876 80.1108 251.166 82.3285L223.555 171.927C222.844 174.145 220.714 175.032 218.849 173.967Z" fill="#233349"/>
<path d="M212.191 146.555L128.293 98.2079C126.961 97.4095 126.251 95.6352 126.783 94.0384L145.782 32.4729C146.226 30.9648 147.736 30.3438 148.979 31.0535L232.877 79.4011C234.208 80.1995 234.919 81.9737 234.386 83.5705L215.387 145.136C214.943 146.733 213.434 147.354 212.191 146.555Z" fill="#1A2638"/>
<path d="M200.826 148.063L116.928 99.7159C115.597 98.9175 114.886 97.1433 115.419 95.5465L134.418 33.981C134.862 32.4729 136.371 31.8519 137.614 32.5616L221.512 80.9091C222.844 81.7076 223.554 83.4818 223.022 85.0786L204.023 146.644C203.579 148.241 202.158 148.862 200.826 148.063Z" fill="url(#paint1_radial)"/>
<path d="M200.826 148.063L116.928 99.7159C115.597 98.9175 114.886 97.1433 115.419 95.5465L134.418 33.981C134.862 32.4729 136.371 31.8519 137.614 32.5616L221.512 80.9091C222.844 81.7076 223.554 83.4818 223.022 85.0786L204.023 146.644C203.579 148.241 202.158 148.862 200.826 148.063Z" fill="#30475E"/>
<path opacity="0.4" d="M95.088 198.274C93.9339 198.274 92.8685 198.008 91.9807 197.564L58.4215 178.225C57.5337 177.693 57.001 176.983 57.001 176.185C57.001 175.209 57.7112 174.322 58.8654 173.612L76.1777 163.677C78.3084 162.435 81.4158 162.346 83.2802 163.411L116.839 182.75C117.727 183.282 118.26 183.992 118.26 184.79C118.26 185.766 117.55 186.653 116.396 187.363L99.0832 197.298C97.8403 198.008 96.4198 198.274 95.088 198.274ZM80.084 163.588C78.8411 163.588 77.5982 163.854 76.6216 164.475L59.3093 174.411C58.4215 174.943 57.9776 175.564 57.9776 176.096C57.9776 176.717 58.4215 177.072 58.8654 177.338L92.4246 196.766C93.9339 197.653 96.7749 197.564 98.5505 196.5L115.863 186.564C116.751 186.032 117.195 185.411 117.195 184.879C117.195 184.258 116.751 183.903 116.307 183.637L82.7475 164.298C82.0372 163.765 81.0606 163.588 80.084 163.588Z" fill="#233349"/>
<path d="M158.034 64.9412L152.885 61.925C152.441 61.6588 152.175 60.9492 152.352 60.4169C152.53 59.8846 153.063 59.6185 153.507 59.9733L158.656 62.9895C159.1 63.2557 159.366 63.9653 159.189 64.4976C159.1 64.9412 158.567 65.2073 158.034 64.9412Z" fill="white"/>
<path d="M170.375 72.038L162.74 67.6025C162.296 67.3363 162.029 66.6267 162.207 66.0944C162.385 65.5621 162.917 65.296 163.361 65.6508L170.996 70.0864C171.44 70.3525 171.707 71.0622 171.529 71.5945C171.44 72.1267 170.908 72.3042 170.375 72.038Z" fill="white"/>
<path d="M147.558 88.006L142.409 84.9899C141.965 84.7237 141.698 84.014 141.876 83.4818C142.053 82.9495 142.586 82.6834 143.03 83.0382L148.179 86.0544C148.623 86.3205 148.89 87.0302 148.712 87.5625C148.623 88.006 148.091 88.2722 147.558 88.006Z" fill="white"/>
<path d="M158.566 94.3046L150.931 89.869C150.487 89.6029 150.221 88.8932 150.398 88.3609C150.576 87.8287 151.109 87.5625 151.553 87.9174L159.188 92.3529C159.632 92.6191 159.898 93.3287 159.72 93.861C159.632 94.3933 159.099 94.5707 158.566 94.3046Z" fill="white"/>
<path d="M142.497 60.7717L139.301 58.9088C138.857 58.6427 138.591 57.933 138.769 57.4007C138.946 56.8685 139.479 56.6023 139.923 56.9572L143.119 58.8201C143.563 59.0862 143.829 59.7959 143.651 60.3282C143.563 60.8605 143.03 61.1266 142.497 60.7717Z" fill="white"/>
<path d="M152.263 71.2396L142.409 65.5621C141.965 65.2959 141.698 64.5862 141.876 64.054C142.053 63.5217 142.586 63.2556 143.03 63.6104L152.885 69.2879C153.329 69.5541 153.595 70.2638 153.417 70.796C153.24 71.3283 152.796 71.5944 152.263 71.2396Z" fill="white"/>
<path d="M143.119 75.6752L139.923 73.8123C139.479 73.5461 139.213 72.8364 139.391 72.3042C139.568 71.7719 140.101 71.5058 140.545 71.8606L143.741 73.7235C144.185 73.9897 144.451 74.6994 144.274 75.2316C144.185 75.7639 143.652 76.03 143.119 75.6752Z" fill="white"/>
<path d="M159.81 104.684L151.199 99.7159C150.755 99.4498 150.488 98.7401 150.666 98.2078C150.844 97.6756 151.376 97.4094 151.82 97.7643L160.432 102.732C160.876 102.998 161.142 103.708 160.965 104.24C160.787 104.772 160.254 105.039 159.81 104.684Z" fill="white"/>
<path d="M139.479 83.3043L137.437 82.0624C136.993 81.7963 136.727 81.0866 136.904 80.5543C137.082 80.022 137.615 79.7559 138.058 80.1107L140.1 81.3527C140.544 81.6188 140.811 82.3285 140.633 82.8608C140.544 83.393 140.012 83.5705 139.479 83.3043Z" fill="white"/>
<path d="M137.526 91.9093L134.952 90.4012C134.508 90.1351 134.241 89.4254 134.419 88.8932C134.596 88.3609 135.129 88.0948 135.573 88.4496L138.148 89.9577C138.592 90.2238 138.858 90.9335 138.68 91.4658C138.592 91.9093 138.059 92.1755 137.526 91.9093Z" fill="white"/>
<path d="M147.558 97.6756L140.722 93.7723C140.278 93.5062 140.012 92.7965 140.189 92.2642C140.367 91.732 140.9 91.4658 141.344 91.8207L148.18 95.724C148.624 95.9901 148.89 96.6998 148.712 97.2321C148.624 97.7643 148.091 97.9418 147.558 97.6756Z" fill="white"/>
<path d="M138.591 97.3207L133.708 94.4819C133.265 94.2158 132.998 93.5061 133.176 92.9738C133.353 92.4416 133.886 92.1754 134.33 92.5303L139.213 95.369C139.657 95.6352 139.923 96.3449 139.746 96.8771C139.657 97.4094 139.124 97.5868 138.591 97.3207Z" fill="white"/>
<path d="M167.268 109.031L164.161 107.256C163.717 106.99 163.45 106.28 163.628 105.748C163.805 105.216 164.338 104.95 164.782 105.305L167.889 107.079C168.333 107.345 168.6 108.055 168.422 108.587C168.244 109.119 167.712 109.297 167.268 109.031Z" fill="white"/>
<path d="M155.193 82.6834L146.581 77.7156C146.138 77.4494 145.871 76.7397 146.049 76.2075C146.226 75.6752 146.759 75.4091 147.203 75.7639L155.815 80.7318C156.259 80.9979 156.525 81.7076 156.347 82.2398C156.17 82.6834 155.637 82.9495 155.193 82.6834Z" fill="white"/>
<path d="M156.258 78.4252L141.165 69.7315C140.722 69.4654 140.455 68.7557 140.633 68.2234C140.81 67.6911 141.343 67.425 141.787 67.7799L156.88 76.4736C157.324 76.7397 157.59 77.4494 157.412 77.9816C157.235 78.4252 156.702 78.6913 156.258 78.4252Z" fill="#FF6B08"/>
<path d="M147.291 82.9495L138.679 77.9817C138.235 77.7155 137.969 77.0059 138.146 76.4736C138.324 75.9413 138.857 75.6752 139.301 76.03L147.912 80.9979C148.356 81.264 148.623 81.9737 148.445 82.506C148.356 83.0382 147.824 83.2156 147.291 82.9495Z" fill="#FF6B08"/>
<path d="M161.763 86.4092L158.656 84.635C158.212 84.3689 157.945 83.6592 158.123 83.1269C158.301 82.5946 158.833 82.3285 159.277 82.6834L162.384 84.4576C162.828 84.7237 163.095 85.4334 162.917 85.9657C162.74 86.4979 162.207 86.7641 161.763 86.4092Z" fill="#FF6B08"/>
<path d="M193.724 85.5221L175.08 74.7881C174.637 74.5219 174.37 73.8123 174.548 73.28C174.725 72.7477 175.258 72.4816 175.702 72.8364L194.346 83.5705C194.79 83.8366 195.056 84.5463 194.879 85.0786C194.701 85.5221 194.168 85.7883 193.724 85.5221Z" fill="#FF6B08"/>
<path d="M146.581 92.2642L136.194 86.2318C135.75 85.9657 135.484 85.256 135.661 84.7237C135.839 84.1915 136.371 83.9253 136.815 84.2802L147.203 90.3125C147.647 90.5786 147.913 91.2883 147.735 91.8206C147.647 92.3529 147.114 92.5303 146.581 92.2642Z" fill="#FF6B08"/>
<path d="M148.18 59.1749L140.544 54.7394C140.1 54.4732 139.834 53.7636 140.012 53.2313C140.189 52.699 140.722 52.4329 141.166 52.7877L148.801 57.2233C149.245 57.4894 149.511 58.1991 149.334 58.7314C149.156 59.2636 148.623 59.5298 148.18 59.1749Z" fill="#FF6B08"/>
<path d="M136.993 101.313L128.115 96.1674C127.671 95.9013 127.404 95.1916 127.582 94.6593C127.76 94.1271 128.292 93.8609 128.736 94.2158L137.614 99.361C138.058 99.6272 138.325 100.337 138.147 100.869C138.058 101.313 137.525 101.579 136.993 101.313Z" fill="#FF6B08"/>
<path d="M195.854 75.9413L192.037 73.7235C191.682 73.5461 191.504 73.0138 191.593 72.659C191.682 72.3042 192.126 72.1267 192.481 72.3042L196.298 74.5219C196.653 74.6994 196.831 75.2316 196.742 75.5865C196.565 75.9413 196.21 76.1187 195.854 75.9413Z" fill="white"/>
<path d="M203.046 80.1107L199.228 77.893C198.873 77.7155 198.696 77.1833 198.784 76.8284C198.873 76.4736 199.317 76.2962 199.672 76.4736L203.49 78.6914C203.845 78.8688 204.022 79.4011 203.934 79.7559C203.756 80.1107 203.401 80.2882 203.046 80.1107Z" fill="white"/>
<path d="M210.237 84.2801L206.42 82.0624C206.065 81.8849 205.887 81.3527 205.976 80.9978C206.065 80.643 206.508 80.4655 206.864 80.643L210.681 82.8607C211.036 83.0382 211.214 83.5704 211.125 83.9253C211.036 84.2801 210.592 84.4576 210.237 84.2801Z" fill="white"/>
<path d="M213.789 86.3205L213.7 86.2318C213.345 86.0544 213.167 85.5221 213.256 85.1672C213.345 84.8124 213.789 84.635 214.144 84.8124L214.233 84.9011C214.588 85.0785 214.765 85.6108 214.677 85.9656C214.588 86.3205 214.144 86.4979 213.789 86.3205Z" fill="#FF6B08"/>
<defs>
<linearGradient id="paint0_linear" x1="92.4757" y1="89.3791" x2="251.364" y2="89.3791" gradientUnits="userSpaceOnUse">
<stop stop-color="#3919BB"/>
<stop offset="1" stop-color="#6507FA"/>
</linearGradient>
<radialGradient id="paint1_radial" cx="0" cy="0" r="1" gradientUnits="userSpaceOnUse" gradientTransform="translate(-1.703 -4.9392) scale(308.823 308.579)">
<stop stop-color="#E39A65"/>
<stop offset="0.4742" stop-color="#A92FFB"/>
<stop offset="0.5875" stop-color="#891CFB"/>
<stop offset="0.7262" stop-color="#6507FA"/>
<stop offset="1" stop-color="#3919BB"/>
</radialGradient>
</defs>
</svg>
